<!DOCTYPE svg PUBLIC "-//W3C//DTD SVG 1.1//EN" "http://www.w3.org/Graphics/SVG/1.1/DTD/svg11.dtd">
<!-- Uploaded to: SVG Repo, www.svgrepo.com, Transformed by: SVG Repo Mixer Tools -->
<svg width="228px" height="228px" viewBox="-3.2 -3.2 38.40 38.40" id="OBJECT" xmlns="http://www.w3.org/2000/svg" fill="#121212" stroke="#121212" stroke-width="0.256" transform="matrix(1, 0, 0, 1, 0, 0)">
<g id="SVGRepo_bgCarrier" stroke-width="0">
<path transform="translate(-3.2, -3.2), scale(1.2)" d="M16,31.703424161300063C18.474567172935934,32.25358041182415,21.313757668013903,31.4532031560559,23.25458053725962,29.822448366525705C25.165777022719322,28.216586815848515,24.98573817716615,25.22856499114094,26.26039649120129,23.08224033992017C27.428618541480724,21.115137660711277,30.117439484003306,20.018612503791363,30.423379558253867,17.7513153507306C30.72895599068007,15.486713117827362,29.266180647795007,13.286976332434032,27.820978366481164,11.51689424523866C26.546148624060564,9.955484247164796,24.365098381401015,9.589243036154803,22.76183571298266,8.367465286193191C21.29865126068775,7.252435139781018,20.381407227488292,5.5810232904296955,18.79949371258529,4.642007529000351C16.88799510168555,3.5073517424005303,14.678430821989881,1.4769201197979056,12.637474079995858,2.357696067951137C10.451124429165453,3.3012164018623946,10.733720942290136,6.623673223748359,9.494996010412295,8.657368372814336C8.653000820888337,10.039726544838787,7.467660471634216,11.093138661772251,6.518238622392957,12.404042230738167C5.281640006546976,14.111461899019764,3.170211547481964,15.469991195155828,3.037143536811884,17.57397573998579C2.9065342254819164,19.639084935391587,4.583273371950092,21.369644422628735,5.847603090144689,23.00769361140349C7.068496150494896,24.589466829502896,8.743940147566539,25.633943480232087,10.261512480023963,26.933774466963662C12.178441354623116,28.575662301416763,13.53618881631078,31.155659227843206,16,31.703424161300063" fill="#90dbf4" strokewidth="0"/>
</g>
<g id="SVGRepo_tracerCarrier" stroke-linecap="round" stroke-linejoin="round"/>
<g id="SVGRepo_iconCarrier">
<defs>
<style>.cls-1{fill:#b2b2b2;}</style>
</defs>
<title/>
<path class="cls-1" d="M25,8H7A1,1,0,0,0,6,9V28a3,3,0,0,0,3,3H23a3,3,0,0,0,3-3V9A1,1,0,0,0,25,8Z"/>
<path class="cls-1" d="M8,6A1,1,0,0,1,7,5V2A1,1,0,0,1,9,2V5A1,1,0,0,1,8,6Z"/>
<path class="cls-1" d="M16,6a1,1,0,0,1-1-1V2a1,1,0,0,1,2,0V5A1,1,0,0,1,16,6Z"/>
<path class="cls-1" d="M24,6a1,1,0,0,1-1-1V2a1,1,0,0,1,2,0V5A1,1,0,0,1,24,6Z"/>
<rect height="6" rx="1" ry="1" width="22" x="5" y="4"/>
<path d="M21,27H11a1,1,0,0,1,0-2H21a1,1,0,0,1,0,2Z"/>
<path d="M14,23H11a1,1,0,0,1,0-2h3a1,1,0,0,1,0,2Z"/>
<path d="M21,18H11a1,1,0,0,1,0-2H21a1,1,0,0,1,0,2Z"/>
<path d="M14,14H11a1,1,0,0,1,0-2h3a1,1,0,0,1,0,2Z"/>
</g>
</svg>